<?xml version="1.0" encoding="UTF-8"?>
<svg version="1.1" xmlns="http://www.w3.org/2000/svg" width="4096" height="4096">
<path d="M0 0 C1.16724609 0.06316406 2.33449219 0.12632812 3.53710938 0.19140625 C94.75598549 5.20181302 185.36986274 16.28978292 275 34 C275.9200885 34.18135498 276.840177 34.36270996 277.78814697 34.54956055 C378.77406555 54.50264203 478.5802184 82.60139861 679 162 C679.66477356 162.29650452 680.32954712 162.59300903 681.01446533 162.89849854 C700.67892626 171.67093058 720.12353226 180.84144136 739.46427917 190.30477905 C745.07679834 193.04706157 750.72277714 195.71563342 756.375 198.375 C764.3461203 202.14361675 772.1598933 206.16097214 779.9375 210.3125 C783.58867205 212.26017936 787.2571946 214.17044556 790.9375 216.0625 C803.13081579 222.33440943 815.1584709 228.82052301 827.0625 235.625 C832.33005579 238.63301443 837.63685029 241.56555278 842.95141602 244.48950195 C856.19311952 251.78221223 869.20003321 259.40328864 882.11767578 267.25390625 C884.85161805 268.91011115 887.59335235 270.55220797 890.33984375 272.1875 C900.89220331 278.47097805 911.31744045 284.92912409 921.67626953 291.52636719 C923.93292053 292.95746043 926.19714749 294.37555009 928.46484375 295.7890625 C968.05152712 320.50712499 1006.5893473 347.25760538 1043.83398438 375.36962891 C1046.20243167 377.15237136 1048.57721684 378.92643277 1050.953125 380.69921875 C1060.17894501 387.58710825 1069.33931685 394.53804041 1078.35546875 401.69824219 C1080.0339312 403.02685884 1081.71894569 404.34669678 1083.40625 405.6640625 C1091.75149499 412.18242323 1099.99071984 418.82428522 1108.19140625 425.5234375 C1109.7923548 426.83047541 1111.39597976 428.13423356 1113 429.4375 C1118.44422636 433.86884704 1123.82109569 438.37263539 1129.16918945 442.91894531 C1132.53888745 445.77892853 1135.94048907 448.59274041 1139.375 451.375 C1149.38568814 459.53239748 1159.0645879 468.07989909 1168.5859375 476.80078125 C1171.34956436 479.31845426 1174.15966468 481.77734586 1176.98046875 484.23046875 C1180.16561228 487.02131985 1183.30603494 489.86129103 1186.44921875 492.69921875 C1188.07327337 494.1641011 1189.70053785 495.62543831 1191.33203125 497.08203125 C1197.59972069 502.68449329 1203.75558032 508.40088243 1209.88574219 514.15283203 C1212.30455444 516.41954189 1214.73132415 518.67614332 1217.17700195 520.91381836 C1230.80772491 533.45063633 1243.80298807 546.65089497 1256.88452148 559.75415039 C1260.38416736 563.25953776 1263.88834736 566.76035303 1267.39383793 570.25989437 C1270.1229856 572.98541571 1272.84973163 575.71332979 1275.57577324 578.44195747 C1276.86709916 579.73394459 1278.15915195 581.02520567 1279.4519825 582.31568718 C1291.56518727 594.4116716 1291.56518727 594.4116716 1296.72850037 600.50831604 C1298.3828109 602.44910189 1300.16620451 604.22943884 1302 606 C1305.10246002 609.06117253 1307.98106424 612.23142268 1310.8203125 615.53515625 C1313.81343337 618.91985028 1316.90827399 622.20549159 1320 625.5 C1324.19978651 629.97933463 1328.36695265 634.46855521 1332.37109375 639.125 C1334.33665089 641.38751181 1336.35673309 643.59690683 1338.375 645.8125 C1341.50422827 649.27530082 1344.50500349 652.80679003 1347.4375 656.4375 C1350.51336588 660.24087503 1353.68753166 663.90082652 1357 667.5 C1361.05538943 671.91156385 1364.8847374 676.45187882 1368.6484375 681.11328125 C1371.24448019 684.30011771 1373.89754397 687.43335825 1376.5625 690.5625 C1380.38057256 695.05515754 1384.11973939 699.59684317 1387.78125 704.21875 C1390.06014648 707.07539489 1392.36784027 709.90680251 1394.67993164 712.73657227 C1400.00319325 719.25590015 1405.23139336 725.82709146 1410.3359375 732.51953125 C1412.94143696 735.93436022 1415.5824347 739.32097488 1418.22485352 742.70727539 C1424.23461932 750.40970806 1430.19018266 758.14507308 1436 766 C1436.50466797 766.6811084 1437.00933594 767.3622168 1437.52929688 768.06396484 C1488.17123183 836.44830466 1534.52100059 907.69597962 1576 982 C1576.60634277 983.08120117 1577.21268555 984.16240234 1577.83740234 985.27636719 C1587.62637625 1002.74798415 1596.95325332 1020.42356715 1606.05770874 1038.26068115 C1608.63196619 1043.29799098 1611.25367141 1048.30910141 1613.89282227 1053.31274414 C1619.70447506 1064.33966369 1625.18185866 1075.49700754 1630.48242188 1086.77783203 C1631.81786596 1089.61328747 1633.16237899 1092.44424567 1634.51074219 1095.27357483 C1674.34934163 1178.92399418 1707.73605782 1265.90422433 1782 1545 C1782.3003717 1546.52572632 1782.3003717 1546.52572632 1782.60681152 1548.08227539 C1801.74436564 1645.57902948 1812.53235912 1744.73977994 1816.25 1844 C1816.29119965 1845.04990112 1816.33239929 1846.09980225 1816.37484741 1847.18151855 C1817.23877831 1869.79779584 1817 1892.34648262 1817 1915 C1500.53 1915 1184.06 1915 858 1915 C857.505 1896.19 857.505 1896.19 857 1877 C856.64144237 1869.30312445 856.26343197 1861.62316146 855.75 1853.9375 C855.68753082 1852.9791626 855.62506165 1852.0208252 855.56069946 1851.03344727 C849.78830707 1763.63233205 832.44253815 1676.89324901 772.58984375 1519.42822266 C771.21487301 1516.46333643 769.85345911 1513.49269576 768.49908447 1510.51835632 C762.48667601 1497.31850953 756.2909014 1484.27261999 749.36474609 1471.52636719 C747.83586525 1468.69615986 746.33338325 1465.8527154 744.83203125 1463.0078125 C720.90812667 1417.85405945 692.95917021 1374.81301623 661.79345703 1334.33251953 C660.26107308 1332.33954427 658.73546434 1330.34179552 657.21484375 1328.33984375 C647.64946899 1315.78820565 637.62617493 1303.60473195 627.37255859 1291.61083984 C625.96681432 1289.96105316 624.57072891 1288.30345255 623.17578125 1286.64453125 C616.00195251 1278.14726937 608.48553052 1270.01954175 600.83642578 1261.94970703 C599.13588609 1260.14426832 597.45267544 1258.32490677 595.77734375 1256.49609375 C588.25535803 1248.30085808 580.48065559 1240.37369401 572.625 1232.5 C572.10857941 1231.98099121 571.59215881 1231.46198242 571.06008911 1230.92724609 C565.75145808 1225.59760479 560.42971316 1220.33281524 554.68310547 1215.46875 C552.87045328 1213.88695198 551.18404075 1212.21738561 549.5 1210.5 C546.51127663 1207.46405075 543.38293521 1204.65491341 540.15625 1201.875 C537.80037042 1199.82640906 535.4949254 1197.72796998 533.1875 1195.625 C528.87090287 1191.7295343 524.4259887 1188.03141782 519.90625 1184.375 C517.34642926 1182.28310348 514.82290359 1180.15819981 512.30981445 1178.01098633 C505.57865426 1172.26037738 498.69545924 1166.73555529 491.69677734 1161.31445312 C490.09342013 1160.07237036 488.49385532 1158.8253966 486.89453125 1157.578125 C442.65178448 1123.26055717 395.43636518 1093.25186515 346 1067 C344.99888184 1066.4652002 343.99776367 1065.93040039 342.96630859 1065.37939453 C326.58292353 1056.64316373 309.93232887 1048.61495928 293 1041 C291.2355957 1040.20360107 291.2355957 1040.20360107 289.43554688 1039.39111328 C211.8109805 1004.53212928 129.23293219 981.05417451 -11.58392334 961.22003174 C-14.00133778 960.99987817 -16.41786 960.77124738 -18.83447266 960.54248047 C-72.35417607 955.58455484 -127.88894713 955.61812049 -181.3918457 960.75 C-184.08161986 961.00782353 -186.77217555 961.25611172 -189.46289062 961.50390625 C-260.43588278 968.13974126 -330.24613928 982.94375457 -398 1005 C-398.71202576 1005.23160828 -399.42405151 1005.46321655 -400.15765381 1005.70184326 C-487.55304175 1034.21831529 -570.71699575 1076.33884225 -721.38916016 1187.62744141 C-723.03894684 1189.03318568 -724.69654745 1190.42927109 -726.35546875 1191.82421875 C-734.73410446 1198.89826791 -742.75158729 1206.30622545 -750.70703125 1213.85058594 C-752.95020732 1215.95332467 -755.21606997 1218.02991006 -757.48542786 1220.10430908 C-764.54189989 1226.56649052 -771.37875968 1233.22365901 -778.13183594 1240.00146484 C-779.8914348 1241.76648544 -781.65640397 1243.52601133 -783.421875 1245.28515625 C-788.5953003 1250.45554268 -793.69549286 1255.62767245 -798.44287109 1261.19775391 C-801.30421479 1264.50951922 -804.35849647 1267.64270772 -807.375 1270.8125 C-812.48096238 1276.21431485 -817.33733848 1281.68871977 -821.96875 1287.50390625 C-824.02216169 1290.02723331 -826.17188057 1292.41932273 -828.375 1294.8125 C-832.43626167 1299.26929324 -836.15413522 1303.92962968 -839.84545898 1308.69116211 C-842.79644135 1312.4915842 -845.82513535 1316.2040058 -848.9375 1319.875 C-859.09338919 1331.98517702 -868.22045215 1344.94229907 -877.41503906 1357.78710938 C-878.44101061 1359.21955025 -879.46888297 1360.65063239 -880.49902344 1362.08007812 C-904.94529358 1396.01417923 -926.39793742 1432.0862524 -946 1469 C-946.5347998 1470.00111816 -947.06959961 1471.00223633 -947.62060547 1472.03369141 C-956.35683627 1488.41707647 -964.38504072 1505.06767113 -972 1522 C-972.79639893 1523.7644043 -972.79639893 1523.7644043 -973.60888672 1525.56445312 C-1008.46787072 1603.1890195 -1031.94582549 1685.76706781 -1051.77996826 1826.58392334 C-1052.00012183 1829.00133778 -1052.22875262 1831.41786 -1052.45751953 1833.83447266 C-1057.41544516 1887.35417607 -1057.38187951 1942.88894713 -1052.25 1996.3918457 C-1051.99217647 1999.08161986 -1051.74388828 2001.77217555 -1051.49609375 2004.46289062 C-1044.86025874 2075.43588278 -1030.05624543 2145.24613928 -1008 2213 C-1007.76839172 2213.71202576 -1007.53678345 2214.42405151 -1007.29815674 2215.15765381 C-989.16634077 2270.72683815 -965.51635214 2324.97783826 -937 2376 C-936.34814411 2377.17057268 -935.69628865 2378.3411456 -935.04443359 2379.51171875 C-913.38207504 2418.33136021 -888.91257378 2455.61686013 -862 2491 C-861.57509277 2491.56138672 -861.15018555 2492.12277344 -860.71240234 2492.70117188 C-854.16185021 2501.35215868 -847.36159343 2509.78454707 -840.48828125 2518.1796875 C-839.18590621 2519.77261865 -837.88933968 2521.3702952 -836.59375 2522.96875 C-828.13572957 2533.38805053 -819.44661744 2543.58986339 -810.2722168 2553.38623047 C-807.6538432 2556.18500655 -805.09364933 2559.02217232 -802.578125 2561.9140625 C-792.38382163 2573.613444 -781.45565428 2584.64390706 -770.5 2595.625 C-769.98784943 2596.13973877 -769.47569885 2596.65447754 -768.94802856 2597.18481445 C-763.73053849 2602.42312302 -758.48412882 2607.57027402 -752.86376953 2612.38134766 C-749.53732557 2615.27030803 -746.37848414 2618.33831039 -743.1875 2621.375 C-737.8075143 2626.46063619 -732.35496212 2631.29078536 -726.5625 2635.90234375 C-723.83853041 2638.13217861 -721.26664815 2640.47954118 -718.6875 2642.875 C-714.13589583 2647.05912338 -709.41744251 2650.90989634 -704.53271484 2654.68969727 C-700.73186397 2657.63164792 -696.99092273 2660.63261805 -693.2824707 2663.69018555 C-684.5335179 2670.89514172 -675.50308023 2677.6571342 -666.32763672 2684.30761719 C-664.15926972 2685.88419785 -662.00194752 2687.47457939 -659.84765625 2689.0703125 C-629.96908289 2711.08647586 -598.32652026 2730.81696353 -566 2749 C-564.59572754 2749.79108154 -564.59572754 2749.79108154 -563.16308594 2750.59814453 C-491.85129011 2790.53427885 -415.41006145 2820.57945451 -98 2871 C-98 3187.47 -98 3503.94 -98 3830 C-149.91304878 3830 -149.91304878 3830 -169 3829.25 C-170.13991394 3829.20709839 -171.27982788 3829.16419678 -172.45428467 3829.11999512 C-273.41891114 3825.27015214 -373.88002559 3813.58533499 -473 3794 C-474.38013275 3793.72796753 -474.38013275 3793.72796753 -475.78814697 3793.45043945 C-576.77406555 3773.49735797 -676.5802184 3745.39860139 -877 3666 C-877.66477356 3665.70349548 -878.32954712 3665.40699097 -879.01446533 3665.10150146 C-898.67892626 3656.32906942 -918.12353226 3647.15855864 -937.46427917 3637.69522095 C-943.07679834 3634.95293843 -948.72277714 3632.28436658 -954.375 3629.625 C-962.3461203 3625.85638325 -970.1598933 3621.83902786 -977.9375 3617.6875 C-981.58867205 3615.73982064 -985.2571946 3613.82955444 -988.9375 3611.9375 C-1001.13081579 3605.66559057 -1013.1584709 3599.17947699 -1025.0625 3592.375 C-1030.33005579 3589.36698557 -1035.63685029 3586.43444722 -1040.95141602 3583.51049805 C-1054.19311952 3576.21778777 -1067.20003321 3568.59671136 -1080.11767578 3560.74609375 C-1082.85161805 3559.08988885 -1085.59335235 3557.44779203 -1088.33984375 3555.8125 C-1098.89220331 3549.52902195 -1109.31744045 3543.07087591 -1119.67626953 3536.47363281 C-1121.93292053 3535.04253957 -1124.19714749 3533.62444991 -1126.46484375 3532.2109375 C-1166.05152712 3507.49287501 -1204.5893473 3480.74239462 -1241.83398438 3452.63037109 C-1244.20243167 3450.84762864 -1246.57721684 3449.07356723 -1248.953125 3447.30078125 C-1258.17894501 3440.41289175 -1267.33931685 3433.46195959 -1276.35546875 3426.30175781 C-1278.0339312 3424.97314116 -1279.71894569 3423.65330322 -1281.40625 3422.3359375 C-1289.75149499 3415.81757677 -1297.99071984 3409.17571478 -1306.19140625 3402.4765625 C-1307.7923548 3401.16952459 -1309.39597976 3399.86576644 -1311 3398.5625 C-1316.44422636 3394.13115296 -1321.82109569 3389.62736461 -1327.16918945 3385.08105469 C-1330.53888745 3382.22107147 -1333.94048907 3379.40725959 -1337.375 3376.625 C-1347.38568814 3368.46760252 -1357.0645879 3359.92010091 -1366.5859375 3351.19921875 C-1369.34956436 3348.68154574 -1372.15966468 3346.22265414 -1374.98046875 3343.76953125 C-1378.16561228 3340.97868015 -1381.30603494 3338.13870897 -1384.44921875 3335.30078125 C-1386.07327337 3333.8358989 -1387.70053785 3332.37456169 -1389.33203125 3330.91796875 C-1395.59972069 3325.31550671 -1401.75558032 3319.59911757 -1407.88574219 3313.84716797 C-1410.30455444 3311.58045811 -1412.73132415 3309.32385668 -1415.17700195 3307.08618164 C-1428.80772491 3294.54936367 -1441.80298807 3281.34910503 -1454.88452148 3268.24584961 C-1458.38416736 3264.74046224 -1461.88834736 3261.23964697 -1465.39383793 3257.74010563 C-1468.1229856 3255.01458429 -1470.84973163 3252.28667021 -1473.57577324 3249.55804253 C-1474.86709916 3248.26605541 -1476.15915195 3246.97479433 -1477.4519825 3245.68431282 C-1489.56518727 3233.5883284 -1489.56518727 3233.5883284 -1494.72850037 3227.49168396 C-1496.3828109 3225.55089811 -1498.16620451 3223.77056116 -1500 3222 C-1503.10246002 3218.93882747 -1505.98106424 3215.76857732 -1508.8203125 3212.46484375 C-1511.81343337 3209.08014972 -1514.90827399 3205.79450841 -1518 3202.5 C-1522.19978651 3198.02066537 -1526.36695265 3193.53144479 -1530.37109375 3188.875 C-1532.33665089 3186.61248819 -1534.35673309 3184.40309317 -1536.375 3182.1875 C-1539.50422827 3178.72469918 -1542.50500349 3175.19320997 -1545.4375 3171.5625 C-1548.51336588 3167.75912497 -1551.68753166 3164.09917348 -1555 3160.5 C-1559.05538943 3156.08843615 -1562.8847374 3151.54812118 -1566.6484375 3146.88671875 C-1569.24448019 3143.69988229 -1571.89754397 3140.56664175 -1574.5625 3137.4375 C-1578.38057256 3132.94484246 -1582.11973939 3128.40315683 -1585.78125 3123.78125 C-1588.06014648 3120.92460511 -1590.36784027 3118.09319749 -1592.67993164 3115.26342773 C-1598.00319325 3108.74409985 -1603.23139336 3102.17290854 -1608.3359375 3095.48046875 C-1610.94143696 3092.06563978 -1613.5824347 3088.67902512 -1616.22485352 3085.29272461 C-1622.23461932 3077.59029194 -1628.19018266 3069.85492692 -1634 3062 C-1634.75700195 3060.9783374 -1634.75700195 3060.9783374 -1635.52929688 3059.93603516 C-1686.17123183 2991.55169534 -1732.52100059 2920.30402038 -1774 2846 C-1774.90951416 2844.37819824 -1774.90951416 2844.37819824 -1775.83740234 2842.72363281 C-1785.62637625 2825.25201585 -1794.95325332 2807.57643285 -1804.05770874 2789.73931885 C-1806.63196619 2784.70200902 -1809.25367141 2779.69089859 -1811.89282227 2774.68725586 C-1817.70447506 2763.66033631 -1823.18185866 2752.50299246 -1828.48242188 2741.22216797 C-1829.81786596 2738.38671253 -1831.16237899 2735.55575433 -1832.51074219 2732.72642517 C-1872.34934163 2649.07600582 -1905.73605782 2562.09577567 -1980 2283 C-1980.3003717 2281.47427368 -1980.3003717 2281.47427368 -1980.60681152 2279.91772461 C-2001.73124036 2172.29878696 -2013.79378059 2061.88002624 -2013 1815 C-2012.93683594 1813.83275391 -2012.87367188 1812.66550781 -2012.80859375 1811.46289062 C-2007.79818698 1720.24401451 -1996.71021708 1629.63013726 -1979 1540 C-1978.81864502 1539.0799115 -1978.63729004 1538.159823 -1978.45043945 1537.21185303 C-1958.49736472 1436.22596862 -1930.39870399 1336.41971415 -1823.68798828 1077.47753906 C-1821.9744542 1073.94737137 -1820.27931688 1070.40892784 -1818.58984375 1066.8671875 C-1812.72559356 1054.58002489 -1806.71166888 1042.41912985 -1800.28320312 1030.41796875 C-1798.89324653 1027.79884202 -1797.53015514 1025.16693839 -1796.171875 1022.53125 C-1790.1594616 1010.87201608 -1783.90700041 999.38763385 -1777.40234375 987.99609375 C-1775.0451739 983.861991 -1772.72948115 979.70789377 -1770.44140625 975.53515625 C-1762.59773808 961.23802229 -1754.40002761 947.23627898 -1745.875 933.33984375 C-1742.74787849 928.24170178 -1739.69044731 923.10948353 -1736.6875 917.9375 C-1731.8379354 909.6146124 -1726.68383344 901.49341748 -1721.50585938 893.37207031 C-1720.06079385 891.09576411 -1718.62932819 888.81159848 -1717.203125 886.5234375 C-1692.44481015 846.86616111 -1665.64022561 808.26501876 -1637.47509766 770.95898438 C-1636.00226918 769.00301356 -1634.53704513 767.04158478 -1633.07421875 765.078125 C-1626.05097681 755.65784032 -1618.88667238 746.35450128 -1611.64453125 737.1015625 C-1610.13582674 735.17357432 -1608.63004649 733.24334395 -1607.125 731.3125 C-1600.67978259 723.05923743 -1594.10132826 714.9182208 -1587.4765625 706.80859375 C-1586.16952459 705.2076452 -1584.86576644 703.60402024 -1583.5625 702 C-1579.13115296 696.55577364 -1574.62736461 691.17890431 -1570.08105469 685.83081055 C-1567.22107147 682.46111255 -1564.40725959 679.05951093 -1561.625 675.625 C-1553.70022067 665.89655225 -1545.39453729 656.47943516 -1536.96875 647.18359375 C-1535.16465216 645.18262015 -1533.38992983 643.1604969 -1531.625 641.125 C-1527.78416014 636.71250026 -1523.81322663 632.4213747 -1519.84375 628.125 C-1517.72325883 625.81478265 -1515.65448492 623.4646895 -1513.59765625 621.09765625 C-1510.13327929 617.12422798 -1506.55713421 613.26936032 -1502.9375 609.4375 C-1501.75885283 608.18644447 -1500.58048209 606.93512846 -1499.40234375 605.68359375 C-1498.76933853 605.0123497 -1498.13633331 604.34110565 -1497.48414612 603.64952087 C-1495.65860022 601.7024446 -1493.8412668 599.74920953 -1492.03025818 597.78871155 C-1483.58661308 588.6639042 -1474.93080575 579.78239266 -1466.1328125 571 C-1464.75936629 569.62587736 -1463.38606831 568.25160655 -1462.01290894 566.87719727 C-1459.16582083 564.0286516 -1456.31697492 561.18187963 -1453.46679688 558.33642578 C-1449.83246916 554.70783254 -1446.20270298 551.07471444 -1442.57422066 547.4402771 C-1439.75176173 544.61419211 -1436.92691019 541.79050835 -1434.10134506 538.9675293 C-1432.76190925 537.62875512 -1431.42320073 536.28925285 -1430.08526993 534.94897461 C-1417.49297857 522.33940912 -1417.49297857 522.33940912 -1411.59713745 517.38305664 C-1409.80896188 515.83456869 -1408.15590948 514.18845273 -1406.5 512.5 C-1404.24202057 510.20673964 -1401.94003496 508.03571972 -1399.5 505.9375 C-1395.39489448 502.40165716 -1391.45004759 498.70664762 -1387.5 495 C-1383.02064765 490.80023102 -1378.53144588 486.63304829 -1373.875 482.62890625 C-1371.61248819 480.66334911 -1369.40309317 478.64326691 -1367.1875 476.625 C-1363.72469918 473.49577173 -1360.19320997 470.49499651 -1356.5625 467.5625 C-1352.75912497 464.48663412 -1349.09917348 461.31246834 -1345.5 458 C-1341.08359856 453.94016355 -1336.53836478 450.10676179 -1331.87109375 446.33984375 C-1328.77012983 443.81266363 -1325.72834545 441.22373995 -1322.6875 438.625 C-1317.72404093 434.39643271 -1312.65391493 430.33287174 -1307.50585938 426.33203125 C-1302.82620795 422.68262072 -1298.25117211 418.91799266 -1293.6875 415.125 C-1285.98558827 408.73983302 -1278.09725604 402.63518543 -1270.11621094 396.60449219 C-1268.0107028 395.00811476 -1265.91408823 393.40078972 -1263.8203125 391.7890625 C-1248.90481389 380.31065138 -1233.7257648 369.19895623 -1218.44921875 358.20703125 C-1215.50684317 356.08952457 -1212.57238525 353.961756 -1209.64453125 351.82421875 C-1183.75928602 332.95551862 -1156.94564048 315.31141376 -1130 298 C-1129.25572754 297.52175781 -1128.51145508 297.04351562 -1127.74462891 296.55078125 C-1090.01426641 272.37420489 -1051.2494992 249.67807301 -1011.76611328 228.49414062 C-1009.18734034 227.10119355 -1006.62064482 225.68904393 -1004.05859375 224.265625 C-978.52118741 210.10284842 -952.43128352 196.72302842 -925.96289062 184.38574219 C-923.18021674 183.08428726 -920.40349639 181.77075087 -917.62846375 180.45309448 C-833.7878039 140.65072479 -746.82622557 107.18267584 -468 33 C-466.47427368 32.6996283 -466.47427368 32.6996283 -464.91772461 32.39318848 C-357.29878696 11.26875964 -246.88002624 -0.79378059 0 0 Z " fill="#F2F2F2" transform="translate(2147,134)"/>
<path d="M0 0 C0 421.74 0 843.48 0 1278 C-421.74 1278 -843.48 1278 -1278 1278 C-1276.24973637 1274.49947274 -1275.07186227 1272.8218038 -1272.40011567 1270.149828 C-1271.64575524 1269.39055057 -1270.89139481 1268.63127314 -1270.11417498 1267.84898731 C-1269.27954033 1267.01913414 -1268.44490567 1266.18928097 -1267.58497906 1265.33428073 C-1266.25446688 1263.9995616 -1266.25446688 1263.9995616 -1264.89707566 1262.63787844 C-1262.41895316 1260.15221027 -1259.9345985 1257.67285212 -1257.44923962 1255.19442231 C-1254.7424165 1252.4929488 -1252.04139537 1249.78568482 -1249.33963788 1247.07914686 C-1244.58009925 1242.31280465 -1239.81682428 1237.55022163 -1235.05114424 1232.79002032 C-1227.91678113 1225.66382213 -1220.78817062 1218.53188997 -1213.66069404 1211.39880483 C-1201.51524021 1199.24413448 -1189.36502002 1187.09423884 -1177.21223068 1174.94690323 C-1164.89080338 1162.63097173 -1152.57154034 1150.31288148 -1140.2549324 1137.99213028 C-1139.47801135 1137.21495088 -1138.7010903 1136.43777148 -1137.90062618 1135.63704119 C-1134.73654143 1132.47188995 -1131.57247215 1129.30672325 -1128.40842248 1126.14153694 C-1098.91331267 1096.63583881 -1069.41326231 1067.13508493 -1039.9100647 1037.63747406 C-1039.03518173 1036.76275668 -1038.16029876 1035.88803931 -1037.25890419 1034.98681535 C-1035.94449424 1033.67265418 -1035.94449424 1033.67265418 -1034.60353056 1032.33194431 C-1007.9365741 1005.67002876 -981.27148346 979.00624891 -954.60824585 952.34061432 C-952.82463196 950.55684547 -951.04101775 948.77307695 -949.25740322 946.98930875 C-942.09030799 939.82159261 -934.92322097 932.65386827 -927.75614594 925.48613194 C-907.71982737 905.44797912 -887.68316219 885.41017291 -867.64622498 865.3726387 C-866.733702 864.46008844 -865.82117903 863.54753817 -864.88100384 862.60733487 C-835.7928562 833.51836836 -806.70317243 804.43093845 -777.61244202 775.3445549 C-777.14056778 774.8727509 -776.66869354 774.4009469 -776.18252008 773.9148458 C-760.37627895 758.11095748 -744.56995819 742.3071488 -728.76362928 726.50334826 C-680.95924465 678.7066052 -633.15658875 630.90813538 -547.7943626 545.53385092 C-531.99212833 529.7290903 -516.18987938 513.92434437 -500.38755798 498.11967087 C-499.91581737 497.64785977 -499.44407676 497.17604866 -498.95804098 496.68994026 C-469.42457601 467.15206604 -439.8898864 437.61541676 -410.35377502 408.08018875 C-408.98598778 406.71244226 -408.98598778 406.71244226 -407.59056847 405.31706452 C-387.57673237 385.3038533 -367.56257518 365.29096321 -347.54812819 345.27836292 C-340.38732627 338.11821932 -333.22654043 330.95805965 -326.06575921 323.79789536 C-324.28424082 322.01653175 -322.5027211 320.23516949 -320.72120003 318.45380857 C-294.05918695 291.79418572 -267.39939075 265.13234773 -240.74109581 238.46900696 C-239.42877136 237.15643412 -239.42877136 237.15643412 -238.0899353 235.81734467 C-237.21665674 234.94390074 -236.34337818 234.07045681 -235.44363663 233.17054489 C-206.03557537 203.7569758 -176.62376088 174.34716438 -147.20766234 144.94163319 C-144.05344954 141.78852518 -140.89925243 138.63540146 -137.7450676 135.48226547 C-136.5838778 134.3214663 -136.5838778 134.3214663 -135.39922963 133.13721664 C-123.10717465 120.84911714 -110.81848442 108.55765838 -98.53116448 96.26482434 C-86.46938423 84.19777287 -74.40407191 72.1342628 -62.33490807 60.07459611 C-55.24596045 52.99101306 -48.15980081 45.9046675 -41.07760698 38.81433183 C-36.38623904 34.11811079 -31.69131741 29.42546344 -26.99336788 24.73582643 C-24.32233932 22.06931826 -21.65295817 19.40121372 -18.98790587 16.72873139 C-16.13561102 13.86855245 -13.27577965 11.01603588 -10.41502094 8.16432261 C-9.16306896 6.90519841 -9.16306896 6.90519841 -7.88582502 5.62063735 C-7.13146459 4.87119392 -6.37710417 4.1217505 -5.59988433 3.34959666 C-4.94784122 2.69760949 -4.29579812 2.04562232 -3.62399613 1.37387796 C-2 0 -2 0 0 0 Z " fill="#F3F3F3" transform="translate(3964,2686)"/>
</svg>
